<?xml version="1.0" encoding="utf-8"?>
<!-- Generator: Adobe Illustrator 27.1.0, SVG Export Plug-In . SVG Version: 6.00 Build 0)  -->
<svg version="1.1" id="Layer_1" xmlns="http://www.w3.org/2000/svg" xmlns:xlink="http://www.w3.org/1999/xlink" x="0px" y="0px"
	 viewBox="0 0 590 589" style="enable-background:new 0 0 590 589;" xml:space="preserve">
<style type="text/css">
	.st0{fill-rule:evenodd;clip-rule:evenodd;fill:#FFFFFF;}
</style>
<g>
	<g>
		<path class="st0" d="M353.8,270.4c2.5,4.8,4.2,10.7,3.7,13.5c8-1.6,15.9-1.9,23.8-1c4.1,2.3,6.7,5.4,8,9.5
			c1.7,12.8,4.4,23.9,8.1,33.1c7,6.7,9.2,11.8,6.7,15.1c5.8,10.4,5.5,21.7-1,34c-11.5-12.1-17.3-18.1-17.3-18.1
			c5.8-6.6,8.7-9.9,8.7-9.9c-6.3-3-9.1-7.6-8.3-14c0.6-14.1-2.8-24.3-10-30.7c-1.9-0.9-4.1-1.4-6.5-1.2c-7.4,8-14.4,14-20.5,18.1
			c-0.7,1.9-1.5,3.7-2.3,5.4c11.6,4.8,21.3,11.4,29.1,20c1.6,4.4,1.5,8.5-0.2,12.4c-7.2,10.8-12.4,20.9-15.7,30.3
			c0.8,9.7-0.8,14.9-4.8,15.8c-2.4,11.6-10.1,20-23.1,25c-0.8-16.7-1.1-25-1.1-25c8.7-1.2,13.1-1.8,13.1-1.8
			c-2.8-6.4-1.9-11.7,2.9-16c9.7-10.3,13.9-20.2,12.6-29.7c-0.8-2-2.2-3.7-4.1-5.2c-20.3,2.1-29.1,2.2-45.6-8.5
			c5.2,4.8,9.7,8.2,13.7,10.3c-24.9,16.7-38.9,20.2-69.3,21.9c-7.5,0.4-14.1,1.3-19,4.3c-2.2-5.8-6-10.4-11.3-13.9
			c17.7,19,7.7,52.5-0.3,73.8c-3.8,17.7,3.5,35.3,21.9,52.9c5.7,5.5,3.2,3.4,6.2,9.4c1.2,2.3,2.9,3.9,4.8,5.1
			c5.4,3.4,10.8,4.8,14,17.7c0,0-8.6,0.3-26.8,0.3c1-4,1.3-8.5-2.4-13.5c-9.1-0.8-7.3-3.5-10.4-11.4c-7.6-19.3-19-35.2-34.2-47.7
			c-1.7-1.6-2.1-3.8-1.4-6.7c2.5-6.2,5.7-11.2,4.8-18.2c-3.1,3.8-6.5,7.6-10,11.3c-10.3,13.4-11.9,30.8-4.8,52.4
			c2.8,8.6,3.9,6.7,2.9,15.6c-0.5,4.4,1.4,5.9,5,8.9c3.2,2.8,6.5,6.5,7.7,13.6h-28.1c2.2-3.8,3.2-12.5,2.2-18.1
			c-8.3-4.9-4.7-8.3-4.3-17.8c0.9-19.5-2.6-37.8-10.5-54.8c-0.8-2.1-0.3-4.3,1.6-6.7c8.6-8,11.7-14.8,8.7-27.3
			c-2.8-11.8-11.3-21.7-9.5-38c-11.9-5.6-22.6-4.7-32.1,2.9c-18.7,24,27.2,48.7,10.9,85c-0.6-6.5-2.1-12.2-4.5-17.3
			c0,13.1-3.7,24.8-10.9,35.2c7.6-21.1,1.3-45.9-18.9-74.2c0.6,2.7,1.8,6.2,3.8,10.8c-18.9-15.6-11.2-48.5,11.4-57.7
			c11.2-4.6,25.1-2.7,41.6,5.8c2.5-8.9,8.6-17.6,18.2-26.2c9.8-7.6,20.8-12.3,33.2-14.1c26.3-3.8,71.6-8.8,78.5-40.4
			c2.5-11.6-4.5-18.1-10.3-28.1c-5.1-5.2-9.9-14.4-11.9-22.5c-1.6-2.8-5.5-5.1-10.2-4.5c-10.4,2.3-19.4-0.1-27-7.4
			c-1.8-5.3-0.8-8.5,3.1-9.8c1.9-2.7,5.3-5.2,10.4-7.3c4.3-1.7,9.1-2.3,14.2-1.8c8.3-2,14.8-3.3,23-4.6c-2.6-1-6.1-1.5-9.1-3.7
			c0.2,1.1,0.4,1.9,0.9,3.1c-2.6-2.3-4-4.7-4.3-6.1c-0.2,0.6-0.7,1.3-0.2,3.5c-3.2-3.3-4.8-6.2-4.8-8.8c-0.4,0.7-0.9,1.6-0.8,3.3
			c-1.8-2.9-3.2-7.3-3.1-9.9c-0.9,0.9-1.4,2.3-1.5,4.1c-2.2-3.5-2.4-7.5-1-12.7c0.6-2.1,0.9-3.1,0.9-3.1c-1.6-6.4,1.9-12.3,9-15.9
			c-0.3,0.5-0.6,2.5,0,3.6c2.5-5.2,8.3-8.8,15-10c-1.2,0.6-2.4,2-2.9,3.6c3.3-2.1,12.6-4.4,16.6-2.9c-1.3,0.3-4.3,3.4-4.5,4.6
			c3.1,1.8,6.4,4.5,8.7,8.6c2,3.4,3,4.4,3.2,5.8c0.1,0.7,0,1.3-0.1,2.8c0,0.6,0.3,1.3,1.1,2.3c1.4,1.1,2.6,2.7,3.7,4.8
			c0.5,0.6,0.9,1.2,1.3,1.8l44-103.9c-1.1-0.6-2.3-1.2-3.5-1.9c17.6,6.3,33.1,7.7,50,13.8c21.9,8,37.5,23.3,44.4,45.7
			c3.8,12.2,5.9,22.7,6.9,30.7l28-5.4l-3.1-5.2l13.4,4.6l-10.7,9.3l1-6.2l-28.3,5.5c0.1,0.7,0.1,1.4,0.2,2c1.5-0.1,3.2,0.6,5.3,2
			c1.4,2.3,2.5,7.2,2.3,14.3c0.2,0.4-0.6,0.9-2.6,1.6l-1.6-0.2c1.4,7.3,2.2,17.6,2,30.4c-0.4,21.4-9.9,39.7-26.6,54
			c-12.9,11-25.8,17.4-39.2,28.8c1.3-1.4,2.5-2.8,3.7-4.1l-50.7-51.7c0.4,7.9,0.4,16.2,3.6,29.8c-3.1-4-8.5-8.8-13.3-12.4
			c4.9,5.4,13,13.4,17.5,21.9L353.8,270.4L353.8,270.4z M446.9,152.9l-101.6,19.8c-3-0.3-6.1-0.2-9.4,0.5c-6.5,1.4-16.4,7-21.7,7.1
			c-0.4-3.1-1-5.8-1.6-8.3c1.1-0.8,0.8-1.8-0.4-3.5L356.4,64c16.5,8.4,30.4,10.6,43.3,15.7c15.2,6.1,32.4,15.3,40.8,43.1
			C442.8,129.1,444.9,139.1,446.9,152.9L446.9,152.9z M351.2,174l96-18.7l0.2,1.4l-0.2,0c-4.1,3.5-6.6,5.8-7.4,7.5
			c2.9,0.1,5.2,1.4,6.4,2c-8.2-1.5-15.7,0.2-25.8,2.1c-15.8-1.2-26.2-4.9-38.9,5.2c-8.9-0.8-18.2,0.6-24,4
			C355.5,176,353.5,174.9,351.2,174L351.2,174z M346.3,229.5c1.7-10.7-0.1-21.7-3.3-32c12.3,2.1,31.6-3.8,39.6-10.1
			c24,1.2,45.8-8.1,68.5-14.4c2.1,14.3,3,24.9,2.5,31.6c-0.3,26.6-12.7,40.3-24.2,50.6c-9.4,8.5-20.2,14.9-31.7,26.8L346.3,229.5
			L346.3,229.5z"/>
	</g>
</g>
</svg>
