<?xml version="1.0" encoding="utf-8"?>
<!-- Generator: Adobe Illustrator 27.1.0, SVG Export Plug-In . SVG Version: 6.00 Build 0)  -->
<svg version="1.1" id="Layer_1" xmlns="http://www.w3.org/2000/svg" xmlns:xlink="http://www.w3.org/1999/xlink" x="0px" y="0px"
	 viewBox="0 0 1830 589" style="enable-background:new 0 0 1830 589;" xml:space="preserve">
<g>
	<g>
		<path d="M260,229.4h24.1l-14.6,65.8c-2.8,12.5-4.8,20.2-5.8,23c3.8,17.4,9.3,26.1,16.5,26.1c8.5,0,12.9-5.9,13.2-17.6h5.1
			c-0.3,11-2.3,19.9-6,26.6c-3.7,6.8-8.6,10.2-14.7,10.2c-5,0-8.8-2-11.2-6.1c-2.5-4.1-5.1-12.4-8-25c-9.8,20.7-25.9,31.1-48.3,31.1
			c-15.2,0-27.4-5.9-36.3-17.8c-9-11.9-13.5-28.9-13.5-51.1c0-21.8,4.9-38.7,14.8-50.8c9.8-12.1,21.7-18.2,35.5-18.2
			c9.7,0,17.7,3.5,24,10.4c6.2,6.9,11.8,18.2,16.6,33.8L260,229.4z M247.5,285.1c-4.5-15.2-9.4-27.2-14.9-35.7
			c-5.5-8.6-12.1-12.9-19.7-12.9c-17.3,0-26,20.3-26,60.8c0,38.4,8.3,57.7,24.8,57.7c14.4,0,25-16.9,31.9-50.8L247.5,285.1z"/>
		<path d="M465.8,225.4l3,44.9h-3c-4-13.5-9.8-23.1-17.2-29c-7.5-5.9-16.4-8.9-26.9-8.9c-8.8,0-16.7,2.2-23.8,6.7
			c-7.1,4.5-12.7,11.6-16.7,21.3c-4.1,9.7-6.1,21.9-6.1,36.4c0,12,1.9,22.3,5.7,31.1c3.8,8.8,9.6,15.5,17.3,20.2
			c7.7,4.7,16.5,7,26.4,7c8.6,0,16.1-1.8,22.7-5.5c6.6-3.7,13.8-11,21.6-21.9l3,1.9c-6.6,11.8-14.4,20.4-23.2,25.8
			c-8.8,5.5-19.3,8.2-31.5,8.2c-21.9,0-38.8-8.1-50.9-24.4c-9-12.1-13.4-26.3-13.4-42.7c0-13.2,3-25.3,8.9-36.4
			c5.9-11,14-19.6,24.4-25.7c10.4-6.1,21.7-9.1,34-9.1c9.5,0,19,2.3,28.3,7c2.7,1.4,4.7,2.1,5.8,2.1c1.8,0,3.3-0.6,4.6-1.9
			c1.7-1.8,2.9-4.2,3.6-7.3H465.8z"/>
		<path d="M570.4,235.6v52.2h29c7.5,0,12.6-1.1,15.1-3.4c3.4-3,5.3-8.3,5.7-15.8h3.6v46h-3.6c-0.9-6.4-1.8-10.6-2.7-12.4
			c-1.2-2.3-3.1-4.1-5.7-5.4c-2.7-1.3-6.8-1.9-12.3-1.9h-29v43.6c0,5.8,0.3,9.4,0.8,10.7c0.5,1.3,1.4,2.3,2.7,3
			c1.3,0.7,3.8,1.1,7.4,1.1h22.4c7.5,0,12.9-0.5,16.3-1.6c3.4-1,6.6-3.1,9.7-6.1c4-4,8.2-10.1,12.4-18.2h3.9l-11.4,33.1H532.8V357
			h4.7c3.1,0,6.1-0.7,8.9-2.2c2.1-1,3.5-2.6,4.2-4.7c0.7-2.1,1.1-6.3,1.1-12.8v-85.9c0-8.4-0.8-13.5-2.5-15.5
			c-2.3-2.6-6.2-3.9-11.7-3.9h-4.7v-3.6h101.8l1.5,28.9h-3.8c-1.4-7-2.9-11.7-4.5-14.3c-1.7-2.6-4.1-4.6-7.4-5.9
			c-2.6-1-7.2-1.5-13.7-1.5H570.4z"/>
		<path d="M697.8,227.3h35.9l80.8,99.1v-76.2c0-8.1-0.9-13.2-2.7-15.2c-2.4-2.7-6.2-4.1-11.4-4.1h-4.6v-3.6h46v3.6h-4.7
			c-5.6,0-9.5,1.7-11.9,5.1c-1.4,2.1-2.1,6.8-2.1,14.2v111.4h-3.5l-87.1-106.4v81.4c0,8.1,0.9,13.2,2.6,15.2
			c2.5,2.7,6.3,4.1,11.4,4.1h4.7v3.6h-46v-3.6h4.6c5.7,0,9.6-1.7,12-5.1c1.4-2.1,2.1-6.8,2.1-14.2v-91.9c-3.8-4.5-6.7-7.4-8.7-8.9
			c-2-1.4-4.9-2.8-8.7-4c-1.9-0.6-4.7-0.9-8.6-0.9V227.3z"/>
		<path d="M1006.3,228.4l1.5,31h-3.7c-0.7-5.5-1.7-9.4-2.9-11.7c-2-3.8-4.7-6.5-8-8.3c-3.3-1.8-7.7-2.7-13.2-2.7h-18.6v101
			c0,8.1,0.9,13.2,2.6,15.2c2.5,2.7,6.3,4.1,11.4,4.1h4.6v3.6h-56V357h4.7c5.6,0,9.5-1.7,11.9-5.1c1.4-2.1,2.1-6.8,2.1-14.2v-101
			h-15.9c-6.2,0-10.6,0.5-13.2,1.4c-3.4,1.2-6.3,3.6-8.7,7.1c-2.4,3.5-3.8,8.3-4.3,14.2h-3.7l1.6-31H1006.3z"/>
		<path d="M1139.3,317.8h-51.2l-9,20.9c-2.2,5.1-3.3,9-3.3,11.5c0,2,1,3.8,2.9,5.3c1.9,1.5,6.1,2.5,12.4,3v3.6h-41.6v-3.6
			c5.5-1,9.1-2.2,10.7-3.8c3.3-3.1,7-9.5,11-19l46.5-108.8h3.4l46,109.9c3.7,8.8,7.1,14.6,10.1,17.2c3,2.6,7.2,4.1,12.6,4.4v3.6
			h-52.1v-3.6c5.3-0.3,8.8-1.1,10.7-2.6c1.9-1.5,2.8-3.3,2.8-5.5c0-2.9-1.3-7.4-3.9-13.5L1139.3,317.8z M1136.6,310.6l-22.4-53.4
			l-23,53.4H1136.6z"/>
		<path d="M1326.2,230.5v-3.6h46.8v3.6h-5c-5.2,0-9.2,2.2-12,6.5c-1.4,2-2,6.7-2,14v53.6c0,13.3-1.3,23.5-3.9,30.8
			c-2.6,7.3-7.8,13.6-15.5,18.8c-7.7,5.2-18.2,7.8-31.4,7.8c-14.4,0-25.4-2.5-32.8-7.5c-7.5-5-12.8-11.7-15.9-20.2
			c-2.1-5.8-3.1-16.6-3.1-32.6v-51.7c0-8.1-1.1-13.5-3.4-16c-2.2-2.5-5.9-3.8-10.9-3.8h-5v-3.6h57.1v3.6h-5.1
			c-5.5,0-9.4,1.7-11.7,5.2c-1.6,2.3-2.4,7.2-2.4,14.6v57.6c0,5.1,0.5,11,1.4,17.6c0.9,6.6,2.6,11.8,5.1,15.5
			c2.5,3.7,6,6.8,10.7,9.2c4.6,2.4,10.3,3.6,17.1,3.6c8.6,0,16.4-1.9,23.2-5.7c6.8-3.8,11.5-8.6,14-14.5c2.5-5.9,3.8-15.8,3.8-29.9
			v-53.5c0-8.3-0.9-13.4-2.7-15.5c-2.5-2.9-6.3-4.3-11.3-4.3H1326.2z"/>
		<path d="M1559.9,360.6h-35.3l-44.7-61.8c-3.3,0.1-6,0.2-8.1,0.2c-0.8,0-1.8,0-2.7,0c-1,0-2-0.1-3-0.1v38.4
			c0,8.3,0.9,13.5,2.7,15.5c2.5,2.9,6.2,4.3,11.1,4.3h5.2v3.6h-56.6V357h5c5.6,0,9.6-1.8,12-5.5c1.4-2,2-6.8,2-14.3v-85.4
			c0-8.3-0.9-13.5-2.7-15.5c-2.5-2.9-6.3-4.3-11.3-4.3h-5v-3.6h48.1c14,0,24.4,1,31,3.1c6.7,2,12.3,5.8,17,11.3c4.6,5.5,7,12,7,19.6
			c0,8.1-2.6,15.2-7.9,21.2c-5.3,6-13.5,10.2-24.6,12.7l27.3,37.9c6.2,8.7,11.6,14.5,16.1,17.3c4.5,2.9,10.3,4.7,17.5,5.5V360.6z
			 M1466,292.6c1.2,0,2.3,0,3.2,0c0.9,0,1.7,0,2.2,0c12.6,0,22.1-2.7,28.5-8.2c6.4-5.5,9.6-12.4,9.6-20.9c0-8.3-2.6-15-7.7-20.1
			c-5.2-5.2-12-7.7-20.5-7.7c-3.8,0-8.9,0.6-15.3,1.9V292.6z"/>
		<path d="M1669.6,357v3.6H1613V357h4.7c5.5,0,9.4-1.6,11.9-4.8c1.6-2.1,2.3-7.1,2.3-15v-85.4c0-6.7-0.4-11.1-1.3-13.3
			c-0.6-1.6-2-3-4-4.2c-2.9-1.6-5.8-2.3-9-2.3h-4.7v-3.6h56.6v3.6h-4.8c-5.4,0-9.3,1.6-11.8,4.8c-1.6,2.1-2.4,7.1-2.4,15v85.4
			c0,6.7,0.4,11.1,1.3,13.3c0.6,1.6,2,3,4.1,4.2c2.8,1.6,5.7,2.3,8.9,2.3H1669.6z"/>
	</g>
</g>
</svg>
