<?xml version="1.0" encoding="UTF-8"?>
<svg id="a" data-name="Layer 1" xmlns="http://www.w3.org/2000/svg" viewBox="0 0 128 128">
  <defs>
    <style>
      .b {
        fill: #56b130;
      }

      .c {
        fill: none;
      }
    </style>
  </defs>
  <g>
    <path class="b" d="m46.73,73.29s-10.11,2.47-11.52,14.08c-1.41,11.61,10.11,20.46,11.52,21.4,1.41.94,6.4,4.47,13.83,5.13v14.11h6.77v-14.06s12.6-.71,22.67-10.16c10.06-9.45,13.03-22.99,13.4-32.87s-4.8-25.58-11.38-34.8C85.43,26.9,63.94,0,63.94,0l-26.38,33.86s-11.47,14.48-12.88,32.45c0,0-1.13,15.89,4.42,25.2,0,0-.94-8.18,3.29-12.32,0,0-5.64-20.69,10.91-41.57,16.55-20.88,20.64-26.52,20.64-26.52l17.82,22.67s12.51,13.54,14.58,32.35c0,0,1.6,14.11-4.04,23.51,0,0,1.41-16.83-13.19-23.68-14.6-6.84-16.79-8.22-18.2-10.43-2.52-3.94-2.26-10.16-.42-12.98,0,0-6.1,1.54-8.32,10.49-2.45,9.83,2.99,15.86,5.15,17.72,2.52,2.17,9.43,9.98,1.62,16.43,0,0-7.2,4.64-12.56-2.33,0,0-3.74-4.3.35-11.57Z"/>
    <path class="b" d="m66.43,32.03s9.01.42,9.01,8.77c0,7.81-3.53,11.09-6.21,10.25-3.12-.97-2.63-4.93-1.87-7.21.85-2.54,3.11-9.23-.93-11.81Z"/>
  </g>
  <rect class="c" width="128" height="128"/>
</svg>